<svg width="13" height="16" viewBox="0 0 13 16" fill="none" xmlns="http://www.w3.org/2000/svg">
<path d="M11.287 2.37969H8.76282V1.92076C8.76282 1.16035 8.14641 0.543945 7.38601 0.543945H5.55026C4.78986 0.543945 4.17345 1.16035 4.17345 1.92076V2.37969H1.6493C1.01565 2.37969 0.501953 2.89339 0.501953 3.52704V4.44491C0.501953 4.69839 0.707413 4.90385 0.96089 4.90385H11.9754C12.2289 4.90385 12.4343 4.69839 12.4343 4.44491V3.52704C12.4343 2.89339 11.9206 2.37969 11.287 2.37969ZM5.09132 1.92076C5.09132 1.66777 5.29727 1.46182 5.55026 1.46182H7.38601C7.639 1.46182 7.84494 1.66777 7.84494 1.92076V2.37969H5.09132V1.92076Z" fill="#FF4C4D"/>
<path d="M1.3729 5.82129C1.29101 5.82129 1.22576 5.88973 1.22966 5.97153L1.60828 13.9181C1.64328 14.6535 2.24735 15.2295 2.98337 15.2295H9.9529C10.6889 15.2295 11.293 14.6535 11.328 13.9181L11.7066 5.97153C11.7105 5.88973 11.6453 5.82129 11.5634 5.82129H1.3729ZM8.30389 6.96863C8.30389 6.71507 8.50926 6.50969 8.76282 6.50969C9.01639 6.50969 9.22176 6.71507 9.22176 6.96863V12.9348C9.22176 13.1884 9.01639 13.3937 8.76282 13.3937C8.50926 13.3937 8.30389 13.1884 8.30389 12.9348V6.96863ZM6.0092 6.96863C6.0092 6.71507 6.21457 6.50969 6.46814 6.50969C6.7217 6.50969 6.92707 6.71507 6.92707 6.96863V12.9348C6.92707 13.1884 6.7217 13.3937 6.46814 13.3937C6.21457 13.3937 6.0092 13.1884 6.0092 12.9348V6.96863ZM3.71452 6.96863C3.71452 6.71507 3.91989 6.50969 4.17345 6.50969C4.42702 6.50969 4.63239 6.71507 4.63239 6.96863V12.9348C4.63239 13.1884 4.42702 13.3937 4.17345 13.3937C3.91989 13.3937 3.71452 13.1884 3.71452 12.9348V6.96863Z" fill="#FF4C4D"/>
</svg>
